<svg viewBox="0 0 20 20" fill="none" xmlns="http://www.w3.org/2000/svg">
<path d="M17.3583 6.67437L11.9 2.3077C10.8333 1.4577 9.16666 1.44936 8.10832 2.29936L2.64999 6.67437C1.86666 7.29937 1.39166 8.54936 1.55832 9.5327L2.60832 15.816C2.84999 17.2244 4.15832 18.3327 5.58332 18.3327H14.4167C15.825 18.3327 17.1583 17.1994 17.4 15.8077L18.45 9.52436C18.6 8.54936 18.125 7.29937 17.3583 6.67437ZM10.625 14.9994C10.625 15.341 10.3417 15.6244 9.99999 15.6244C9.65832 15.6244 9.37499 15.341 9.37499 14.9994V12.4994C9.37499 12.1577 9.65832 11.8744 9.99999 11.8744C10.3417 11.8744 10.625 12.1577 10.625 12.4994V14.9994Z"  fill="currentColor" />
</svg>
