<svg viewBox="0 0 24 24" fill="none" xmlns="http://www.w3.org/2000/svg">
<path fill-rule="evenodd" clip-rule="evenodd" d="M20.2871 5.24297C20.6761 5.24297 21 5.56596 21 5.97696V6.35696C21 6.75795 20.6761 7.09095 20.2871 7.09095H3.71385C3.32386 7.09095 3 6.75795 3 6.35696V5.97696C3 5.56596 3.32386 5.24297 3.71385 5.24297H6.62957C7.22185 5.24297 7.7373 4.82197 7.87054 4.22798L8.02323 3.54598C8.26054 2.61699 9.0415 2 9.93527 2H14.0647C14.9488 2 15.7385 2.61699 15.967 3.49699L16.1304 4.22698C16.2627 4.82197 16.7781 5.24297 17.3714 5.24297H20.2871ZM18.8064 19.1349C19.1108 16.298 19.6437 9.55804 19.6437 9.49004C19.6632 9.28404 19.5961 9.08904 19.4628 8.93204C19.3199 8.78505 19.139 8.69805 18.9396 8.69805H5.06906C4.86872 8.69805 4.67809 8.78505 4.54583 8.93204C4.41162 9.08904 4.34548 9.28404 4.35521 9.49004C4.35699 9.50253 4.37612 9.73994 4.40809 10.1369C4.55012 11.9001 4.94571 16.8111 5.20133 19.1349C5.38222 20.8469 6.50552 21.9229 8.1326 21.9619C9.38817 21.9909 10.6817 22.0009 12.0043 22.0009C13.2502 22.0009 14.5155 21.9909 15.8099 21.9619C17.4934 21.9329 18.6157 20.8759 18.8064 19.1349Z" fill="currentColor"/>
</svg>
