<svg viewBox="0 0 20 20" fill="none" xmlns="http://www.w3.org/2000/svg">
<path d="M6.45834 2.91602V1.66602C6.45834 1.32435 6.17501 1.04102 5.83334 1.04102C5.49168 1.04102 5.20834 1.32435 5.20834 1.66602V2.96602C5.41668 2.94102 5.60834 2.91602 5.83334 2.91602H6.45834Z" fill="currentColor"/>
<path d="M13.125 2.96602V1.66602C13.125 1.32435 12.8417 1.04102 12.5 1.04102C12.1583 1.04102 11.875 1.32435 11.875 1.66602V2.91602H12.5C12.725 2.91602 12.9167 2.94102 13.125 2.96602Z" fill="currentColor"/>
<path d="M17.7417 12.4743C17.1 11.966 16.2917 11.666 15.4167 11.666C14.5417 11.666 13.7167 11.9743 13.075 12.491C12.2083 13.1743 11.6667 14.241 11.6667 15.416C11.6667 16.116 11.8667 16.791 12.2083 17.341C12.475 17.7743 12.8167 18.1577 13.225 18.4493C13.8417 18.8993 14.5917 19.166 15.4167 19.166C16.3667 19.166 17.225 18.816 17.8833 18.2327C18.175 17.991 18.425 17.691 18.625 17.3493C18.9667 16.791 19.1667 16.116 19.1667 15.416C19.1667 14.2243 18.6083 13.1577 17.7417 12.4743ZM15.4167 17.1993C15.4167 16.216 14.6167 15.416 13.6333 15.416C14.6167 15.416 15.4167 14.616 15.4167 13.6327C15.4167 14.616 16.2167 15.416 17.2 15.416C16.2167 15.416 15.4167 16.216 15.4167 17.1993Z" fill="currentColor"/>
<path d="M13.125 2.96602V4.16602C13.125 4.50768 12.8417 4.79102 12.5 4.79102C12.1583 4.79102 11.875 4.50768 11.875 4.16602V2.91602H6.45832V4.16602C6.45832 4.50768 6.17499 4.79102 5.83332 4.79102C5.49166 4.79102 5.20832 4.50768 5.20832 4.16602V2.96602C2.74999 3.19102 1.66666 4.77435 1.66666 7.08268V14.166C1.66666 16.666 2.91666 18.3327 5.83332 18.3327H9.27499C9.90832 18.3327 10.3333 17.6243 10.175 17.0077C10.0583 16.5577 9.99999 16.091 9.99999 15.6243C9.99999 13.891 10.775 12.291 12.1167 11.2327C13.0917 10.441 14.3417 9.99935 15.625 9.99935H15.6583C16.1833 9.99935 16.6667 9.61602 16.6667 9.09102V7.08268C16.6667 4.77435 15.5833 3.19102 13.125 2.96602ZM7.49999 13.9577H5.83332C5.49166 13.9577 5.20832 13.6743 5.20832 13.3327C5.20832 12.991 5.49166 12.7077 5.83332 12.7077H7.49999C7.84166 12.7077 8.12499 12.991 8.12499 13.3327C8.12499 13.6743 7.84166 13.9577 7.49999 13.9577ZM9.99999 9.79102H5.83332C5.49166 9.79102 5.20832 9.50768 5.20832 9.16602C5.20832 8.82435 5.49166 8.54102 5.83332 8.54102H9.99999C10.3417 8.54102 10.625 8.82435 10.625 9.16602C10.625 9.50768 10.3417 9.79102 9.99999 9.79102Z" fill="currentColor"/>
</svg>
