<svg viewBox="0 0 18 18" fill="none" xmlns="http://www.w3.org/2000/svg">
<path d="M8.99997 13.0126C9.67513 13.0126 10.2225 12.4653 10.2225 11.7901C10.2225 11.115 9.67513 10.5676 8.99997 10.5676C8.3248 10.5676 7.77747 11.115 7.77747 11.7901C7.77747 12.4653 8.3248 13.0126 8.99997 13.0126Z" fill="currentColor"/>
<path d="M12.768 7.271V6.396C12.768 4.506 12.378 2 9 2C5.622 2 5.232 4.506 5.232 6.396V7.271C3.552 7.516 3 8.51 3 10.953V12.255C3 15.125 3.75 16 6.21 16H11.79C14.25 16 15 15.125 15 12.255V10.953C15 8.51 14.448 7.516 12.768 7.271ZM9 13.718C7.998 13.718 7.188 12.766 7.188 11.604C7.188 10.435 8.004 9.49 9 9.49C9.996 9.49 10.812 10.442 10.812 11.604C10.812 12.773 10.002 13.718 9 13.718ZM6.21 7.208C6.162 7.208 6.12 7.208 6.072 7.208V6.396C6.072 4.345 6.57 2.98 9 2.98C11.43 2.98 11.928 4.345 11.928 6.396V7.215C11.88 7.215 11.838 7.215 11.79 7.215H6.21V7.208Z" fill="currentColor"/>
</svg>