<svg viewBox="0 0 24 25" fill="none" xmlns="http://www.w3.org/2000/svg">
<path d="M20.91 11.62V7.23001C20.91 6.41001 20.29 5.48001 19.52 5.17001L13.95 2.89001C12.7 2.38001 11.29 2.38001 10.04 2.89001L4.46997 5.17001C3.70997 5.48001 3.08997 6.41001 3.08997 7.23001V11.62C3.08997 16.51 6.63997 21.09 11.49 22.43C11.82 22.52 12.18 22.52 12.51 22.43C17.36 21.09 20.91 16.51 20.91 11.62ZM12.75 13.37V16C12.75 16.41 12.41 16.75 12 16.75C11.59 16.75 11.25 16.41 11.25 16V13.37C10.24 13.05 9.49997 12.11 9.49997 11C9.49997 9.62001 10.62 8.50001 12 8.50001C13.38 8.50001 14.5 9.62001 14.5 11C14.5 12.12 13.76 13.05 12.75 13.37Z" fill="currentColor"/>
</svg>
