<svg viewBox="0 0 20 20" fill="none" xmlns="http://www.w3.org/2000/svg">
<path d="M11.9583 1.66602H8.04167C7.17501 1.66602 6.46667 2.36602 6.46667 3.23268V4.01602C6.46667 4.88268 7.16667 5.58268 8.03334 5.58268H11.9583C12.825 5.58268 13.525 4.88268 13.525 4.01602V3.23268C13.5333 2.36602 12.825 1.66602 11.9583 1.66602Z" fill="currentColor"/>
<path d="M14.3667 4.01689C14.3667 5.34189 13.2833 6.42523 11.9583 6.42523H8.04167C6.71667 6.42523 5.63334 5.34189 5.63334 4.01689C5.63334 3.55023 5.13334 3.25856 4.71667 3.47523C3.54167 4.10023 2.74167 5.34189 2.74167 6.76689V14.6086C2.74167 16.6586 4.41667 18.3336 6.46667 18.3336H13.5333C15.5833 18.3336 17.2583 16.6586 17.2583 14.6086V6.76689C17.2583 5.34189 16.4583 4.10023 15.2833 3.47523C14.8667 3.25856 14.3667 3.55023 14.3667 4.01689ZM10.3167 14.1252H6.66667C6.325 14.1252 6.04167 13.8419 6.04167 13.5002C6.04167 13.1586 6.325 12.8752 6.66667 12.8752H10.3167C10.6583 12.8752 10.9417 13.1586 10.9417 13.5002C10.9417 13.8419 10.6583 14.1252 10.3167 14.1252ZM12.5 10.7919H6.66667C6.325 10.7919 6.04167 10.5086 6.04167 10.1669C6.04167 9.82523 6.325 9.54189 6.66667 9.54189H12.5C12.8417 9.54189 13.125 9.82523 13.125 10.1669C13.125 10.5086 12.8417 10.7919 12.5 10.7919Z" fill="currentColor"/>
</svg>
