<svg viewBox="0 0 20 20" fill="none" xmlns="http://www.w3.org/2000/svg">
<path d="M6.90833 5.24102C6.55833 5.24102 6.28333 4.95768 6.28333 4.61602V2.29102C6.28333 1.94935 6.55833 1.66602 6.90833 1.66602C7.25833 1.66602 7.53333 1.94935 7.53333 2.29102V4.60768C7.53333 4.95768 7.25833 5.24102 6.90833 5.24102Z" fill="currentColor"/>
<path d="M13.0917 5.24102C12.7417 5.24102 12.4667 4.95768 12.4667 4.61602V2.29102C12.4667 1.94102 12.75 1.66602 13.0917 1.66602C13.4417 1.66602 13.7167 1.94935 13.7167 2.29102V4.60768C13.7167 4.95768 13.4417 5.24102 13.0917 5.24102Z" fill="currentColor"/>
<path d="M17.9167 13.1837C17.9167 13.3087 17.875 13.4337 17.7667 13.5421C16.5583 14.7587 14.4083 16.9254 13.175 18.1671C13.0667 18.2837 12.925 18.3337 12.7833 18.3337C12.5083 18.3337 12.2417 18.1171 12.2417 17.8004V14.8837C12.2417 13.6671 13.275 12.6587 14.5417 12.6587C15.3333 12.6504 16.4333 12.6504 17.375 12.6504C17.7 12.6504 17.9167 12.9087 17.9167 13.1837Z" fill="currentColor"/>
<path d="M17.9167 13.1837C17.9167 13.3087 17.875 13.4337 17.7667 13.5421C16.5583 14.7587 14.4083 16.9254 13.175 18.1671C13.0667 18.2837 12.925 18.3337 12.7833 18.3337C12.5083 18.3337 12.2417 18.1171 12.2417 17.8004V14.8837C12.2417 13.6671 13.275 12.6587 14.5417 12.6587C15.3333 12.6504 16.4333 12.6504 17.375 12.6504C17.7 12.6504 17.9167 12.9087 17.9167 13.1837Z" fill="currentColor"/>
<path d="M16.3083 3.74935C15.7583 3.34102 14.9667 3.73268 14.9667 4.42435V4.50768C14.9667 5.48268 14.2667 6.38268 13.2917 6.48268C12.1667 6.59935 11.2167 5.71602 11.2167 4.61602V3.74935C11.2167 3.29102 10.8417 2.91602 10.3833 2.91602H9.61668C9.15834 2.91602 8.78334 3.29102 8.78334 3.74935V4.50768C8.78334 5.24102 8.39168 5.92435 7.78334 6.25768C7.75001 6.28268 7.71668 6.29935 7.68334 6.31602C7.67501 6.31602 7.67501 6.32435 7.66668 6.32435C7.60834 6.34935 7.55001 6.37435 7.48334 6.39935C7.46668 6.40768 7.45001 6.40768 7.43334 6.41602C7.33334 6.44935 7.22501 6.47435 7.10834 6.48268H7.10001C6.97501 6.49935 6.84168 6.49935 6.71668 6.48268H6.70834C6.59168 6.47435 6.48334 6.44935 6.38334 6.41602C6.30001 6.39102 6.21668 6.35768 6.13334 6.31602C5.48334 6.02435 5.03334 5.37435 5.03334 4.61602V4.42435C5.03334 3.78268 4.35001 3.39935 3.80834 3.67435C3.80001 3.68268 3.79168 3.68268 3.78334 3.69102H3.77501C3.71668 3.73268 3.66668 3.77435 3.60834 3.81602C3.51668 3.89102 3.42501 3.96602 3.34168 4.04935C3.28334 4.10768 3.22501 4.16602 3.17501 4.22435C3.10834 4.29102 3.05001 4.35768 2.99168 4.43268C2.95001 4.48268 2.90001 4.53268 2.86668 4.59102C2.82501 4.64102 2.79168 4.69935 2.75834 4.74935C2.75001 4.75768 2.74168 4.76602 2.73334 4.78268C2.65834 4.89102 2.59168 5.01602 2.53334 5.13268C2.51668 5.14935 2.50834 5.15768 2.50834 5.17435C2.45834 5.27435 2.40834 5.37435 2.37501 5.48268C2.35001 5.52435 2.34168 5.55768 2.32501 5.59935C2.30834 5.63268 2.30001 5.67435 2.28334 5.70768C2.25834 5.79102 2.23334 5.88268 2.20834 5.97435C2.17501 6.09102 2.15001 6.21602 2.13334 6.34102C2.11668 6.43268 2.10834 6.52435 2.10001 6.62435C2.09168 6.74102 2.08334 6.85768 2.08334 6.97435V14.2743C2.08334 16.516 3.90001 18.3327 6.14168 18.3327H10.1583C10.6167 18.3327 10.9917 17.9577 10.9917 17.4993V14.8827C10.9917 12.966 12.5833 11.4077 14.5417 11.4077C14.9833 11.3993 16.0583 11.3993 17.0833 11.3993C17.5417 11.3993 17.9167 11.0243 17.9167 10.566V6.97435C17.9167 5.64935 17.2833 4.49102 16.3083 3.74935ZM9.27501 13.2577C9.20001 13.5077 8.96668 13.6827 8.69168 13.6827H5.65834C5.61668 13.6827 5.58334 13.6827 5.55001 13.666C5.25001 13.6243 5.03334 13.366 5.03334 13.0577C5.03334 12.7077 5.30834 12.4243 5.65834 12.4243H8.69168C9.03334 12.4243 9.31668 12.7077 9.31668 13.0577C9.31668 13.1243 9.30834 13.1993 9.27501 13.2577ZM11.5917 10.166C11.5167 10.416 11.2833 10.591 11.0083 10.591H5.65834C5.61668 10.591 5.58334 10.591 5.55001 10.5743C5.25001 10.5327 5.03334 10.2743 5.03334 9.96602C5.03334 9.61602 5.30834 9.33268 5.65834 9.33268H11.0083C11.3583 9.33268 11.6333 9.61602 11.6333 9.96602C11.6333 10.0327 11.625 10.1077 11.5917 10.166Z" fill="currentColor"/>
</svg>
