<svg viewBox="0 0 20 20" fill="none" xmlns="http://www.w3.org/2000/svg">
<path d="M13.9583 2.96602V1.66602C13.9583 1.32435 13.675 1.04102 13.3333 1.04102C12.9917 1.04102 12.7083 1.32435 12.7083 1.66602V2.91602H7.29165V1.66602C7.29165 1.32435 7.00832 1.04102 6.66665 1.04102C6.32499 1.04102 6.04165 1.32435 6.04165 1.66602V2.96602C3.79165 3.17435 2.69999 4.51602 2.53332 6.50768C2.51665 6.74935 2.71665 6.94935 2.94999 6.94935H17.05C17.2917 6.94935 17.4917 6.74102 17.4667 6.50768C17.3 4.51602 16.2083 3.17435 13.9583 2.96602Z" fill="currentColor"/>
<path d="M16.6667 8.19922H3.33333C2.875 8.19922 2.5 8.57422 2.5 9.03255V14.1659C2.5 16.6659 3.75 18.3326 6.66667 18.3326H13.3333C16.25 18.3326 17.5 16.6659 17.5 14.1659V9.03255C17.5 8.57422 17.125 8.19922 16.6667 8.19922ZM12.3667 12.4909L11.95 12.9159H11.9417L9.41667 15.4409C9.30833 15.5492 9.08333 15.6659 8.925 15.6826L7.8 15.8492C7.39167 15.9076 7.10833 15.6159 7.16667 15.2159L7.325 14.0826C7.35 13.9242 7.45833 13.7076 7.56667 13.5909L10.1 11.0659L10.5167 10.6409C10.7917 10.3659 11.1 10.1659 11.4333 10.1659C11.7167 10.1659 12.025 10.2992 12.3667 10.6409C13.1167 11.3909 12.875 11.9826 12.3667 12.4909Z" fill="currentColor"/>
</svg>
